<svg xmlns="http://www.w3.org/2000/svg" width="1536" height="1024" viewBox="0 0 1536 1024" fill="none">
  <path fill="#DD244D" d="M917 298C911.576 304.327 902.642 305.825 897.653 313.004C891.554 321.779 897.749 329.57 900.559 338C902.093 342.602 902.404 349.109 903 354C906.472 354 910.691 354.616 914 353.397C920.152 351.128 926.326 343.215 930 338C928.339 338.613 927.516 339.043 926 340C930.268 328.984 942.536 324.385 948.752 315C950.148 312.892 950.896 308.823 946.941 310.137C943.625 311.237 940.7 314.535 938.426 317.038C936.296 319.383 934.218 321.735 932 324C935.648 317.688 940.914 312.194 946 307C940.099 300.134 933.114 301.529 925.17 300.258C922.37 299.81 919.797 298.519 917 298M640 346L638 346C642.298 338.564 651.259 333.628 653 325C658.985 324.539 662.151 320.484 664 315C655.493 313.433 649.313 324.642 644 330C648.177 322.765 655.503 317.501 659 310C651.578 306.956 645.804 306.172 638 305.101C635.431 304.748 632.589 303.535 630 304.194C627.469 304.837 625.212 306.821 623 308.136C616.107 312.234 606.607 317.979 606.145 327C605.774 334.252 610.855 339.481 612.778 346C614.005 350.163 611.897 357.885 615.742 360.972C624.722 368.182 636.971 352.611 640 346M523 341C523.676 335.977 526.108 330.191 524.682 325.109C523.555 321.089 517.64 319.823 514.318 322.028C511.582 323.844 511.792 328.137 511.101 331C509.735 336.659 507.391 341.862 504.703 347C498.931 358.034 496.582 370.021 493.626 382C487.466 406.961 482.213 434.224 482 460C484.474 456.734 484 452.99 484 449C486.122 456.179 484.59 463.691 484.09 471C483.495 479.674 483.559 488.355 482.424 497C481.881 501.14 483.511 509.257 479.566 511.972C476.456 514.113 470.631 512.948 467 513.424C454.132 515.114 440.893 513.759 428 515.286C375.033 521.555 321.776 523.336 271 541.953C249.878 549.697 225.049 561.346 215.313 583C209.083 596.858 211.227 614.945 222.093 625.91C230.293 634.184 243.612 639.35 255 641.127C276.372 644.463 297.273 646.912 319 645.961C352.196 644.507 384.54 636.36 417 630.094C432.506 627.101 447.819 622.206 463 617.859C466.887 616.746 476.796 615.523 478.824 611.64C481.668 606.195 468.481 610.448 467 610.849C452.652 614.729 437.623 616.787 423 619.424C376.917 627.736 330.865 634.855 284 630.169C267.262 628.495 242.124 626.106 232.483 609.996C227.637 601.899 230.474 592.329 235.363 585C244.847 570.782 263.543 563.259 279 557.425C315.769 543.547 355.212 537.541 394 532.715C422.672 529.148 452.092 525 481 525L480 548C477.969 541.129 479 533.137 479 526C477.417 529.772 478.214 533.964 477.83 538C476.156 555.591 479.257 569.776 485.891 586C488.53 592.455 489.682 597.805 495.04 602.826C511.687 618.427 547.18 620.318 562 601C550.868 604.037 538.819 609.536 527 608.787C522.388 608.495 517.228 606.937 513 605.121C481.034 591.391 485 553.394 485 525C486.637 530.539 485.698 536.289 486.09 542C487.201 558.233 486.686 575.858 496.105 590C508.075 607.973 530.461 608.259 549 602.566C555.931 600.437 564.925 598.466 567.991 590.996C570.11 585.831 569.002 578.034 561.999 578.322C557.848 578.492 553.757 581.436 550 583L549 579L544 580C546.508 578.128 547.483 577.092 548 574C540.957 574.058 531.685 578.853 525.015 576.257C519.59 574.145 518.353 568.017 517.014 563C513.457 549.677 516 536.49 516 523L594 522L593 542C595.498 536.209 592.531 525.545 598 522C595.48 534.995 595.631 548.029 593.857 561C593.035 567.009 591 571.682 591 578C591 584.64 589.15 593.669 597 596C597 571.286 601 546.71 601 522C602.692 527.725 602 534.06 602 540C602 554.701 600.076 569.321 599.999 584C599.976 588.396 598.233 593.684 599.322 597.956C600.548 602.767 606.747 604.009 610.895 602.258C614.887 600.572 620.32 592.145 621 588C622.311 590.688 625.139 594.516 627.258 589.847C628.904 586.222 627.526 581.741 627.17 578C626.732 573.402 626.902 568.615 627.015 564C627.359 549.936 631.204 535.909 633 522L692 522C692.041 536.89 696.243 552.151 694.83 567C694.259 573.006 693.472 578.99 692.925 585C692.707 587.399 691.76 590.467 693.067 592.698C694.665 595.425 699.21 596.36 702 597.255C710.539 599.996 719.22 603.165 728 605C730.844 597.407 731.299 588.982 732.424 581C734.428 566.788 736.99 552.374 737 538C734.85 542.984 735.363 548.682 734.829 554C734.424 558.038 733.323 561.946 733 566L731 566C731.119 551.642 733.99 537.353 734 523L737 523L737 534C738.288 530.933 737.216 526.097 740.318 524.028C745.155 520.8 754.564 523.973 760 523.999C778.708 524.089 797.333 525 816 525C816.079 534.555 819.592 543.522 820 553L822 553L821 525L824 525C824 539.276 821.341 556.486 826.32 570C827.68 573.689 830.858 584.201 836.726 580.928C843.183 577.327 841.543 564.847 841.086 559C840.686 553.895 840.174 549.937 846 549C846 541.302 846.41 533.595 845 526C849.323 531.62 848.943 543.052 849 550C857.217 545.688 853.062 534.548 853 527C864.694 527 876.395 526.533 888 528C888 532.905 888.522 538.137 887.857 543C887.513 545.514 886.232 547.599 885.544 550C883.18 558.253 881.04 574.521 890 579C890 561.914 892.953 545.031 893 528L895 528C894.994 537.723 894.854 548.345 893.714 558C892.973 564.281 891.001 573.813 892.357 579.956C893.59 585.542 901.788 586.256 905.772 583.258C908.224 581.412 908.683 578.837 909 576L914 576L914 570C914.562 571.801 914.824 573.122 915 575C918.231 574.485 920.313 573.555 920.848 569.981C921.48 565.759 920.054 561.255 920.004 557C919.894 547.781 920.847 539.116 922 530C946.71 530 971.247 532 996 532C996.056 552.215 1004.25 579.6 1026 586C1019.32 589.106 1012.08 590.237 1005 592.151C990.695 596.021 976.284 599.501 962 603.425C941.045 609.183 920.006 614.361 899 619.884C884.635 623.661 869.713 628.598 855 630.7C840.499 632.772 824.647 630.93 810 631.001C796.697 631.065 783.303 632.914 770 632.999C749.562 633.131 727.288 636.647 708 643.344C701.359 645.65 690.801 649.037 689.283 657.004C688.131 663.05 692.576 666.573 698 667.685C706.726 669.475 715.229 668.68 724 667.83C762.866 664.067 799.861 651.441 838 644.261C846.286 642.701 854.676 638.881 863 638.104C871.734 637.289 880.33 638.773 889 638.985C909.4 639.485 929.651 640.069 950 640.961C995.658 642.96 1041.41 643.967 1087 647.089C1116.23 649.091 1145.67 651.989 1175 652C1201.92 652.01 1229 653 1256 653C1262.76 653 1269.28 652.596 1276 652.089C1277.96 651.941 1281.62 652.465 1282.82 650.416C1285.97 645.046 1273.84 646.498 1272 646.714C1257.67 648.404 1242.43 647 1228 647C1188.72 647 1149.15 645.592 1110 642.911C1089.11 641.48 1067.95 639.034 1047 639C1036.29 638.983 1025.68 637.507 1015 637.039C993.998 636.12 973.002 635.88 952 634.961C930.367 634.013 908.678 632 887 632C892.769 629.518 899.027 628.561 905 626.656C927.126 619.601 949.714 614.087 972 607.576C986.302 603.397 1000.62 599.289 1015 595.36C1020.86 593.759 1026.92 590.982 1033 590.414C1038.38 589.913 1043.67 592.511 1049 592.91C1069.32 594.432 1089.47 598.785 1110 596.83C1128.1 595.106 1149.94 590.335 1156.91 571C1158.93 565.398 1159 559.87 1159 554C1172.97 551.937 1186.01 543.881 1200 542.184C1216.72 540.157 1234.29 542.576 1251 542.985C1273.21 543.53 1295.91 542.004 1318 539.83C1329.16 538.732 1341.83 536.562 1352 531.673C1356.19 529.659 1362.05 525.467 1360.35 520.004C1358.79 514.975 1352.65 512.475 1348 511.339C1335.81 508.362 1322.38 508.633 1310 509.83C1286.43 512.111 1262.88 516.461 1240 522.64C1227.21 526.096 1214.12 531.809 1201 533.7C1186.25 535.826 1170.8 533 1156 533C1155.71 518.974 1151.06 504.229 1146.67 491C1134.92 455.623 1116.33 415.167 1078 402.745C1053.64 394.852 1028.22 397.305 1004 404.297C997.901 406.058 992.051 408.841 987.019 412.761C985.219 414.163 982.55 416.236 982.921 418.856C983.495 422.903 990.212 421.999 993 422C1001.36 422.004 1013.9 418.67 1020 425C1014.43 426.372 1008.16 426.92 1003.11 429.836C999.83 431.728 998.177 435.412 1000.9 438.667C1004.44 442.911 1013.53 438.144 1018 437.439C1031.5 435.309 1044.88 435.709 1058 439.774C1095.87 451.511 1108.86 496.523 1116 531C1087.96 531 1060.01 528 1032 528C1032.69 524.304 1032.35 519.307 1034.6 516.185C1037.42 512.279 1042.68 510.538 1047 508.953C1056.14 505.6 1065.77 503.925 1075 501C1069.54 498.71 1062.72 500.276 1057 500.83C1040.89 502.389 1026.16 508.214 1026 527L1024 527C1024.3 523.265 1024.81 519.432 1026.41 516C1033.47 500.935 1051.99 497.118 1067 496.089C1073.62 495.636 1080.7 496.276 1087 493.713C1092.98 491.281 1100.96 482.889 1091.98 478.653C1086.22 475.936 1080.02 477.876 1074 478L1074 475L1051 476C1057.37 473.839 1063.39 473.531 1070 472.941C1071.73 472.786 1074.79 472.365 1074.79 470C1074.79 466.365 1068.25 466.946 1066 467.039C1056.69 467.428 1045.75 469.004 1037 472.228C1011.99 481.443 996.158 500.034 995 527C988.387 525.426 981.72 526.371 975 525.911C957.701 524.726 940.322 523.744 923 523C923.633 508.247 927.408 493.692 928.83 479C930.643 460.285 930.909 440.781 930.999 422C931.031 415.451 932.622 406.072 929.566 400.059C924.269 389.632 913.8 401.115 911 407C909.36 405.298 908.28 402.371 906.416 401.024C904.008 399.284 899.803 400 897 400C896.2 405.436 893.864 410.552 893.184 416C891.193 431.945 891.006 448.006 889.911 464C889.175 474.746 888 485.191 888 496C889.335 492.82 888.883 489.412 889.286 486C890.304 477.373 891 468.694 891 460C897.004 463.311 894.368 470.246 893.975 476C892.95 491.014 889.645 505.981 889 521L852 520C851.992 507.242 849.682 494.513 847.424 482C842.188 452.977 834.092 420.352 811.714 399.464C788.503 377.798 753.081 381.638 733.001 405C728.83 409.852 724.827 414.793 723 421C721.758 416.808 721.65 412.33 720.919 408C720.464 405.306 720.043 402.55 719.021 400C715.696 391.705 709.846 390.697 707.29 400C705.385 406.934 704.354 414.823 704.039 422C703.814 427.144 705.091 432.193 700 435C700 425.057 699.192 416.453 696 407L687 410C687.885 430.618 687.136 451.36 688.039 472C688.654 486.037 691 499.911 691 514L634 513C638.768 493.201 638.158 473.127 639.039 453C639.318 446.647 640.83 440.362 640.985 434C641.156 427.031 643.505 412.823 637.501 407.743C629.933 401.34 621.916 414.409 618 419C617.149 416.327 616.41 413.775 616 411L605 411C604.152 417.569 601.256 423.522 600.301 430C598.892 439.56 599.743 449.406 598.83 459C597.156 476.597 595 494.305 595 512L517 512C518.187 496.964 520.356 481.991 521.83 467C523.333 451.724 523.891 436.104 526.805 421C530.872 399.916 538.157 379.174 545.414 359C549.174 348.546 551.019 338.09 551 327C550.993 322.761 551.26 316.098 545.96 314.737C542.288 313.794 539.371 317.439 537.52 320.04C532.936 326.484 530.199 337.26 523 341M932 324C931.455 325.635 931.635 325.455 930 326C930.545 324.365 930.365 324.545 932 324M644 330C643.455 331.635 643.635 331.455 642 332C642.545 330.365 642.365 330.545 644 330M785 393C783.494 393.683 782.685 393.826 781 394C782.506 393.317 783.314 393.174 785 393M792 395C789.761 395.811 788.353 395.529 786 395C788.239 394.189 789.647 394.471 792 395M750 399C742.324 406.443 735.951 413.014 730 422C729.508 418.627 731.643 415.787 733.52 413C737.661 406.853 742.743 401.155 750 399M817 414C819.13 417.232 820.905 420.277 822 424C819.272 421.354 816.428 417.923 817 414M823 518C819.664 515.302 820.204 510.999 819.911 507C819.466 500.933 818.139 495.005 817.286 489C814.34 468.284 809.632 443.936 794.907 428.001C785.6 417.929 771.672 412.251 760.04 422.329C756.282 425.585 753.752 429.921 751 434C750.361 429.589 754.465 425.309 757.439 422.301C768.995 410.612 786.403 414.636 796.535 426.09C818.116 450.487 819.147 487.514 823 518M815 518C808.695 519.067 801.469 518 795 518C775.002 518 754.98 516.002 735 516C735.152 508.627 736.758 501.302 737.718 494C740.181 475.275 742.903 454.371 753.066 438C762.172 423.331 777.724 415.834 791.826 429.301C794.97 432.303 798.513 436.611 799.332 441C799.91 444.102 799.329 446.916 800.404 450C804.961 463.084 808.515 476.326 810.916 490C812.545 499.278 812.795 508.844 815 518M775 424C776.248 424.685 776.548 424.749 778 425C776.752 424.315 776.451 424.251 775 424M779 425C782.148 427.882 786.096 430.273 790 432C787.044 428.172 783.773 425.923 779 425M763 428C748.616 441.819 745.356 463.194 742.573 482C741.155 491.579 739.027 501.301 739 511C741.857 505.055 741.829 497.466 742.921 491C744.839 479.636 747.181 468.139 750.155 457C751.888 450.508 754.478 443.936 757.63 438C759.399 434.67 762.343 431.702 763 428M481 465L481 469C481.71 467.241 481.71 466.759 481 465M600 474C602.574 477.397 602.196 481.83 601.911 486C601.314 494.705 599.686 503.313 599 512L596 512C596.001 503.312 596.995 494.635 597.83 486C598.239 481.776 597.963 477.832 600 474M1051 476C1049.49 476.683 1048.69 476.826 1047 477C1048.51 476.317 1049.31 476.174 1051 476M1046 477C1040.6 480.299 1033.73 481.097 1028 483.971C1017.87 489.047 1011.63 496.453 1006 506C1005.05 501.399 1008.62 496.506 1011.52 493.09C1019.12 484.133 1034.36 477.532 1046 477M479 494L479 503C480.256 500.006 480.256 496.994 479 494M896 494L895 522C892.178 515.275 893.205 500.658 896 494M844 499C844.53 505.715 845.981 512.235 846 519L844 519C844 512.873 841.643 504.629 844 499M887 499L887 507C888.161 504.23 888.161 501.77 887 499M1115 516L1115 519C1114.3 517.446 1114.3 517.554 1115 516M1117 518L1121 531C1116.34 529.361 1115.67 522.313 1117 518M1347 522C1344.09 524.291 1340.56 524.727 1337 525.707C1328.88 527.943 1320.37 529.296 1312 530.075C1285.62 532.528 1259.54 534 1233 534C1239.92 528.549 1253.43 527.839 1262 526.197C1277.68 523.192 1293.16 521.337 1309 519.83C1321.14 518.675 1335.29 518.036 1347 522M1026 534C1026.78 551.013 1039.67 558.109 1054 563C1050.7 564.371 1047.42 563.777 1044 562.84C1029.9 558.977 1025.69 547.093 1024 534L1026 534M1117 538C1118.1 543.651 1119.75 549.236 1120 555L1107 556L1107 558C1110.47 558 1115.67 558.925 1118.72 556.972C1123.7 553.781 1120.01 542.967 1120 538L1122 538C1122.67 543.209 1126.13 551.762 1122.82 556.566C1120.43 560.046 1112.78 559.893 1109 559.985C1096.35 560.295 1083.65 560 1071 560L1071 558L1077 558C1070.38 556.097 1061.97 558 1055 558C1056.25 557.315 1056.55 557.251 1058 557C1049.09 554.748 1039.22 559.669 1034 549L1039 552C1033.68 546.828 1031.59 542.418 1031 535C1059.71 535 1088.33 537.981 1117 538M1181 541C1174.56 544.613 1166.21 546.507 1159 548C1158.5 545.314 1158.12 542.73 1158 540L1181 541M481 561L481 567C480.049 564.715 480.049 563.285 481 561M1066 564C1063.11 565.213 1060.13 564.998 1057 565C1059.89 563.787 1062.87 564.002 1066 564M1101 564C1097.52 565.462 1093.74 564.876 1090 565.039C1082.96 565.347 1076.08 566 1069 566C1078.27 562.074 1091.1 564 1101 564M482 568L482 572C481.29 570.24 481.29 569.759 482 568M1029 580L1032 581C1030.19 581.574 1029.93 581.465 1028 581L1029 580M540 582C536.279 584.229 532.241 583.997 528 584C531.71 582.334 535.949 582.084 540 582M1037 584L1033 583C1035.05 582.249 1035.6 582.344 1037 584M1079 589C1071.35 592.21 1060.99 588.631 1053 588L1053 586C1062.16 584.918 1070.03 588.541 1079 589M812 640C802.983 644.9 790.934 645.403 781 647.51C755.331 652.955 729.316 658 703 658C707.992 651.193 721.261 649.982 729 648.13C755.649 641.752 784.705 640 812 640z"/>
</svg>
